<?xml version="1.0" encoding="utf-8"?>
<svg version="1.1" id="Layer_1" xmlns="http://www.w3.org/2000/svg" xmlns:xlink="http://www.w3.org/1999/xlink" x="0px" y="0px" viewBox="0 0 516.5 134.4" style="enable-background:new 0 0 516.5 134.4;" xml:space="preserve">
  <g>
    <path d="M21.3,38.5c1.6,2.4,2.3,4.6,3.1,9.1c6.1-6,13.7-9.1,21.9-9.1c7.4,0,13.5,2.4,18.3,7.3c1.3,1.2,2.5,2.8,3.6,4.4
    c8.2-8.4,15.6-11.7,25.4-11.7c7,0,13.7,2.1,17.7,5.6c5.1,4.4,6.7,9.7,6.7,21.9v63.9H95.2V70.6c0-10.7-1.3-12.8-7.4-12.8
    c-4.4,0-10.5,3-15.6,7.6v64.6H49.9V71.4c0-11.2-1.6-13.8-8.2-13.8c-4.3,0-10.4,2.2-15.4,6.8v65.5h-23V67.2c0-13-0.9-18.6-3.4-23
    L21.3,38.5z"/>
    <path d="M202,51.8c7.2,8.4,10.4,18.2,10.4,32.8c0,15.4-3.5,26-11.3,34.7c-6.8,7.7-15.8,12.5-29.6,12.5
    c-24.4,0-40.4-18.3-40.4-46.5c0-28.3,16.1-47,40.4-47C184.3,38.3,194.3,42.7,202,51.8z M159.7,64.8c-1.6,4.8-2.5,11.1-2.5,20
    c0,10.3,1.1,18.1,3,22.6c2.1,4.9,7.4,7.4,11.9,7.4c10.2,0,14.5-9.1,14.5-30.3c0-12.1-1.6-20-4.7-24.1c-2.3-3-5.9-4.7-10.2-4.7
    C166.2,55.6,161.6,59.1,159.7,64.8z"/>
    <path d="M288,40v16.1l-39.7,57.4h41.2l-5.6,16.3h-66.1v-14.6L260,56.5h-38.7V40H288z"/>
    <path d="M327.7,15.3c0,8.1-6.4,14.5-14.6,14.5c-7.9,0-14.3-6.5-14.3-14.5c0-8.1,6.7-14.6,14.7-14.6
    C321.5,0.7,327.7,7.2,327.7,15.3z M325,37.9v92h-23.5V41.6L325,37.9z"/>
    <path d="M367.8,23.4v70c0,15.5,0.2,17.5,1.6,20c0.9,1.6,2.8,2.5,4.8,2.5c0.8,0,1.3,0,2.6-0.3l4,14
    c-4,1.6-8.9,2.4-14,2.4c-10,0-18.1-4.7-20.9-12.3c-1.8-4.6-2.1-7.4-2.1-20.2V32.5c0-11.7-0.3-18.9-1.2-27l24-5.4
    C367.4,4.9,367.8,10.7,367.8,23.4z"/>
    <path d="M416.6,23.4v70c0,15.5,0.2,17.5,1.6,20c0.8,1.6,2.7,2.5,4.7,2.5c0.9,0,1.4,0,2.7-0.3l4,14
    c-4,1.6-8.9,2.4-14,2.4c-10,0-18.1-4.7-20.9-12.3c-1.8-4.6-2.1-7.4-2.1-20.2V32.5c0-11.7-0.4-18.9-1.3-27l24-5.4
    C416.3,4.9,416.6,10.7,416.6,23.4z"/>
    <path d="M453.4,43.4c8.7-3.7,16.3-5.3,24.5-5.3c15.1,0,25.5,5.6,29,15.6c1.2,3.7,1.7,6.5,1.6,16.1L508,100
    c0,0.5,0,1.1,0,1.6c0,9.6,1.6,13.3,8.5,18.4L504,134.4c-5.5-2.3-10.4-6.3-12.7-10.9c-1.7,1.8-3.7,3.5-5.5,4.7
    c-4.4,3.2-10.7,4.9-18.1,4.9c-20,0-30.9-10.2-30.9-28.1c0-21.1,14.6-30.9,43.2-30.9c1.7,0,3.3,0,5.3,0.2v-3.7
    c0-10-1.9-13.4-10.6-13.4c-7.5,0-16.3,3.7-25.9,10.2l-10-16.9C443.6,47.7,447.1,46,453.4,43.4z M483.9,90.6c-16.3,0-22,3-22,13.7
    c0,7,4.4,11.7,10.4,11.7c4.4,0,8.8-2.3,12.3-6.1l0.4-19.3H483.9z"/>
  </g>
</svg>
