<svg xmlns="http://www.w3.org/2000/svg" viewBox="0 0 516.5 134.4"><path d="M21.3 38.5c1.6 2.4 2.3 4.6 3.1 9.1 6.1-6 13.7-9.1 21.9-9.1 7.4 0 13.5 2.4 18.3 7.3 1.3 1.2 2.5 2.8 3.6 4.4 8.2-8.4 15.6-11.7 25.4-11.7 7 0 13.7 2.1 17.7 5.6 5.1 4.4 6.7 9.7 6.7 21.9v63.9H95.2V70.6c0-10.7-1.3-12.8-7.4-12.8-4.4 0-10.5 3-15.6 7.6V130H49.9V71.4c0-11.2-1.6-13.8-8.2-13.8-4.3 0-10.4 2.2-15.4 6.8v65.5h-23V67.2c0-13-.9-18.6-3.4-23l21.4-5.7zM202 51.8c7.2 8.4 10.4 18.2 10.4 32.8 0 15.4-3.5 26-11.3 34.7-6.8 7.7-15.8 12.5-29.6 12.5-24.4 0-40.4-18.3-40.4-46.5 0-28.3 16.1-47 40.4-47 12.8 0 22.8 4.4 30.5 13.5zm-42.3 13c-1.6 4.8-2.5 11.1-2.5 20 0 10.3 1.1 18.1 3 22.6 2.1 4.9 7.4 7.4 11.9 7.4 10.2 0 14.5-9.1 14.5-30.3 0-12.1-1.6-20-4.7-24.1-2.3-3-5.9-4.7-10.2-4.7-5.5-.1-10.1 3.4-12 9.1zM288 40v16.1l-39.7 57.4h41.2l-5.6 16.3h-66.1v-14.6L260 56.5h-38.7V40H288zM327.7 15.3c0 8.1-6.4 14.5-14.6 14.5-7.9 0-14.3-6.5-14.3-14.5 0-8.1 6.7-14.6 14.7-14.6 8 0 14.2 6.5 14.2 14.6zM325 37.9v92h-23.5V41.6l23.5-3.7zM367.8 23.4v70c0 15.5.2 17.5 1.6 20 .9 1.6 2.8 2.5 4.8 2.5.8 0 1.3 0 2.6-.3l4 14c-4 1.6-8.9 2.4-14 2.4-10 0-18.1-4.7-20.9-12.3-1.8-4.6-2.1-7.4-2.1-20.2v-67c0-11.7-.3-18.9-1.2-27l24-5.4c.8 4.8 1.2 10.6 1.2 23.3zM416.6 23.4v70c0 15.5.2 17.5 1.6 20 .8 1.6 2.7 2.5 4.7 2.5.9 0 1.4 0 2.7-.3l4 14c-4 1.6-8.9 2.4-14 2.4-10 0-18.1-4.7-20.9-12.3-1.8-4.6-2.1-7.4-2.1-20.2v-67c0-11.7-.4-18.9-1.3-27l24-5.4c1 4.8 1.3 10.6 1.3 23.3zM453.4 43.4c8.7-3.7 16.3-5.3 24.5-5.3 15.1 0 25.5 5.6 29 15.6 1.2 3.7 1.7 6.5 1.6 16.1L508 100v1.6c0 9.6 1.6 13.3 8.5 18.4L504 134.4c-5.5-2.3-10.4-6.3-12.7-10.9-1.7 1.8-3.7 3.5-5.5 4.7-4.4 3.2-10.7 4.9-18.1 4.9-20 0-30.9-10.2-30.9-28.1 0-21.1 14.6-30.9 43.2-30.9 1.7 0 3.3 0 5.3.2v-3.7c0-10-1.9-13.4-10.6-13.4-7.5 0-16.3 3.7-25.9 10.2l-10-16.9c4.8-2.8 8.3-4.5 14.6-7.1zm30.5 47.2c-16.3 0-22 3-22 13.7 0 7 4.4 11.7 10.4 11.7 4.4 0 8.8-2.3 12.3-6.1l.4-19.3h-1.1z"/></svg>